<?xml version="1.0" encoding="UTF-8" standalone="no"?>
<!-- Created with Inkscape (http://www.inkscape.org/) -->

<svg
   version="1.1"
   id="svg18"
   width="510.91064"
   height="360.82962"
   viewBox="0 0 510.91065 360.82962"
   sodipodi:docname="logo.svg"
   xmlns:inkscape="http://www.inkscape.org/namespaces/inkscape"
   xmlns:sodipodi="http://sodipodi.sourceforge.net/DTD/sodipodi-0.dtd"
   xmlns="http://www.w3.org/2000/svg"
   xmlns:svg="http://www.w3.org/2000/svg">
  <defs
     id="defs22">
    <clipPath
       clipPathUnits="userSpaceOnUse"
       id="clipPath36">
      <path
         d="M 0,500 H 500 V 0 H 0 Z"
         id="path34" />
    </clipPath>
  </defs>
  <sodipodi:namedview
     id="namedview20"
     pagecolor="#ffffff"
     bordercolor="#000000"
     borderopacity="0.25"
     inkscape:showpageshadow="2"
     inkscape:pageopacity="0.0"
     inkscape:pagecheckerboard="0"
     inkscape:deskcolor="#d1d1d1"
     showgrid="false" />
  <g
     id="g26"
     inkscape:groupmode="layer"
     inkscape:label="Page 1"
     transform="matrix(1.3333333,0,0,-1.3333333,-77.877865,515.63932)">
    <g
       id="g30"
       style="fill:#ffffff;fill-opacity:1">
      <g
         id="g32"
         clip-path="url(#clipPath36)"
         style="fill:#ffffff;fill-opacity:1">
        <g
           id="g38"
           transform="translate(173.0128,257.8693)"
           style="fill:#ffffff;fill-opacity:1">
          <path
             d="m 0,0 c 0,42.519 34.468,76.987 76.987,76.987 8.922,0 17.48,-1.534 25.449,-4.325 -8.533,3.329 -17.809,5.176 -27.521,5.176 -41.845,0 -75.767,-33.921 -75.767,-75.766 0,-9.712 1.848,-18.988 5.178,-27.522 C 1.535,-17.481 0,-8.921 0,0"
             style="fill:#ffffff;fill-opacity:1;fill-rule:nonzero;stroke:none"
             id="path40" />
        </g>
        <g
           id="g42"
           transform="translate(311.2067,222.0505)"
           style="fill:#ffffff;fill-opacity:1">
          <path
             d="M 0,0 -52.858,40.835 -105.717,0 h 7.249 L -52.858,35.235 -7.248,0 Z"
             style="fill:#ffffff;fill-opacity:1;fill-rule:nonzero;stroke:none"
             id="path44" />
        </g>
        <g
           id="g46"
           transform="translate(251.483,237.3376)"
           style="fill:#ffffff;fill-opacity:1">
          <path
             d="M 0,0 H 6.229 V 6.228 C 2.933,5.925 0.304,3.295 0,0"
             style="fill:#ffffff;fill-opacity:1;fill-rule:nonzero;stroke:none"
             id="path48" />
        </g>
        <g
           id="g50"
           transform="translate(257.7115,229.8356)"
           style="fill:#ffffff;fill-opacity:1">
          <path
             d="M 0,0 V 6.229 H -6.229 C -5.925,2.933 -3.296,0.303 0,0"
             style="fill:#ffffff;fill-opacity:1;fill-rule:nonzero;stroke:none"
             id="path52" />
        </g>
        <g
           id="g54"
           transform="translate(258.985,229.8356)"
           style="fill:#ffffff;fill-opacity:1">
          <path
             d="M 0,0 C 3.296,0.303 5.925,2.933 6.229,6.229 H 0 Z"
             style="fill:#ffffff;fill-opacity:1;fill-rule:nonzero;stroke:none"
             id="path56" />
        </g>
        <g
           id="g58"
           transform="translate(258.985,243.5651)"
           style="fill:#ffffff;fill-opacity:1">
          <path
             d="M 0,0 V -6.228 H 6.229 C 5.925,-2.933 3.296,-0.303 0,0"
             style="fill:#ffffff;fill-opacity:1;fill-rule:nonzero;stroke:none"
             id="path60" />
        </g>
        <g
           id="g62"
           transform="translate(272.1393,306.4445)"
           style="fill:#ffffff;fill-opacity:1">
          <path
             d="m 0,0 c -0.466,-0.551 -0.717,-1.212 -0.768,-1.883 -0.17,0.044 -0.346,0.074 -0.531,0.074 h -2.04 l 0.318,3.181 3.008,3.56 C 1.05,4.555 2.234,5.054 2.684,6.104 2.907,6.625 2.902,7.184 2.725,7.678 L 5.489,6.496 Z M -2.862,6.137 -1.223,5.436 -2.937,3.407 Z M -6.83,-1.809 h -2.357 l 0.218,2.221 1.457,3.853 h 1.094 l 0.104,-3.28 z m -1.217,-6.56 h -2.87 l 0.04,2.256 h 3.05 z m 54.49,-23.532 C 42.316,-11.907 29.89,5.086 12.938,15.312 L 8.395,9.934 5.324,11.247 10.126,16.93 c -0.375,0.204 -0.762,0.388 -1.142,0.585 l -4.862,-5.754 -5.433,2.324 2.651,2.571 c 0,0 0.624,-0.521 1.405,0 0.781,0.521 1.094,0.885 1.094,0.885 l 1.732,1.637 c -0.717,0.326 -1.433,0.651 -2.163,0.954 l -1.27,-1.185 c 0,0 -0.695,0.486 -1.631,0.104 0,0 1.066,0.026 1.327,-1.067 l -3.776,-3.629 -0.433,0.186 c 0,0.011 -0.045,0.587 -0.455,0.986 l 2.989,2.601 -0.138,0.399 c -0.001,0.002 -0.078,0.302 0.25,0.629 0.597,0.597 0.831,0.806 0.833,0.808 l 0.467,0.417 -0.234,0.262 c 0.061,0.055 0.155,0.139 0.237,0.214 -0.435,0.167 -0.868,0.34 -1.307,0.499 C 0.258,21.348 0.224,21.318 0.221,21.315 0.012,21.106 -0.06,20.85 -0.037,20.606 -0.175,20.473 -0.363,20.288 -0.612,20.04 -1.107,19.544 -1.242,18.991 -1.234,18.572 L -4.397,15.82 c -1.137,-0.356 -0.824,-1.802 -0.824,-1.802 l 0.037,0.007 c -0.119,-0.149 -0.226,-0.309 -0.305,-0.493 -0.223,-0.521 -0.219,-1.079 -0.04,-1.573 l -4.131,1.767 c -1.033,0.442 -2.279,0.081 -2.818,-0.906 -0.617,-1.132 -0.117,-2.52 1.04,-3.015 l 0.959,-0.41 V 7.753 l -2.092,-9.562 h -0.938 c -1.088,0 -2.063,-0.775 -2.208,-1.853 -0.166,-1.229 0.707,-2.278 1.863,-2.424 l 0.303,-2.283 h -7.358 c -8.608,-4.999 -5.276,-17.494 -2.916,-19.993 2.361,-2.499 12.079,-13.189 12.079,-13.189 h 3.213 l -1.011,2.693 h 3.002 l 1.28,-2.693 h 0.909 2.566 l -1.074,2.693 h 2.832 l 1.255,-2.693 h 1.919 0.694 l -1.264,2.693 h 2.606 l 1.853,-2.693 h 1.629 2.499 l -2.896,6.9 1.23,23.922 -2.638,2.36 H 3.873 l 0.724,3.659 c 0.022,0.018 0.046,0.033 0.068,0.052 L 18.361,6.951 37.032,-12.417 c 1.903,-1.973 3.494,-4.213 4.743,-6.636 v -13.405 h -1.387 v -22.005 l -3.437,-6.144 3.713,-17.42 c 2.037,4.176 3.681,8.575 4.888,13.152 h -0.861 v 10.654 l 2.638,4.478 v -5.914 c 0.303,2.378 0.488,4.79 0.553,7.233 h -3.191 v 15.689 h -0.833 v 8.527 z"
             style="fill:#ffffff;fill-opacity:1;fill-rule:nonzero;stroke:none"
             id="path64" />
        </g>
        <g
           id="g66"
           transform="translate(127.7028,246.9655)"
           style="fill:#ffffff;fill-opacity:1">
          <path
             d="m 0,0 16.744,-1.414 c 3.11,-0.262 5.654,-2.486 6.328,-5.536 l 0.346,-1.563 c 2.491,-11.285 6.92,-21.968 13.166,-31.758 l 0.861,-1.353 c 1.679,-2.63 1.454,-6.001 -0.56,-8.389 l -2.72,-3.22 c 13.436,1.146 27.352,2.038 41.656,2.652 -20.037,14.041 -33.175,37.287 -33.175,63.557 0,42.777 34.802,77.579 77.579,77.579 42.777,0 77.579,-34.802 77.579,-77.579 0,-26.17 -13.039,-49.338 -32.949,-63.396 14.103,-0.553 27.837,-1.376 41.122,-2.446 l -2.41,2.853 c -2.015,2.388 -2.242,5.759 -0.56,8.391 l 0.861,1.35 c 6.246,9.791 10.674,20.476 13.164,31.758 l 0.347,1.566 c 0.674,3.048 3.217,5.272 6.328,5.534 L 240.45,0 c 3.68,0.312 6.563,3.447 6.563,7.141 v 11.672 c 0,3.755 -2.822,6.825 -6.563,7.141 l -16.743,1.414 c -3.111,0.264 -5.654,2.487 -6.328,5.536 l -0.347,1.563 c -2.49,11.284 -6.918,21.969 -13.164,31.759 l -0.861,1.35 c -1.68,2.632 -1.455,6.005 0.56,8.391 l 10.845,12.846 c 2.383,2.822 2.204,7.079 -0.408,9.69 l -8.254,8.253 c -2.655,2.653 -6.819,2.83 -9.691,0.408 L 183.212,96.317 c -2.389,-2.017 -5.762,-2.24 -8.392,-0.559 l -1.348,0.859 c -9.773,6.239 -20.457,10.669 -31.757,13.168 l -1.563,0.346 c -3.047,0.675 -5.271,3.218 -5.534,6.327 l -1.415,16.743 c -0.317,3.742 -3.388,6.563 -7.142,6.563 H 114.39 c -3.693,0 -6.83,-2.883 -7.14,-6.562 l -1.417,-16.744 c -0.262,-3.109 -2.487,-5.651 -5.534,-6.327 l -1.563,-0.346 C 87.437,107.287 76.752,102.856 66.979,96.618 L 65.63,95.757 C 63,94.075 59.627,94.301 57.239,96.317 L 44.39,107.164 c -2.871,2.422 -7.036,2.244 -9.69,-0.408 l -8.252,-8.253 c -2.613,-2.611 -2.792,-6.868 -0.409,-9.69 L 36.885,75.967 c 2.014,-2.386 2.239,-5.759 0.56,-8.39 L 36.584,66.226 C 30.338,56.436 25.909,45.752 23.419,34.469 L 23.071,32.903 C 22.398,29.855 19.854,27.632 16.744,27.368 L 0,25.954 c -3.68,-0.31 -6.563,-3.447 -6.563,-7.141 V 7.141 C -6.563,3.447 -3.68,0.312 0,0"
             style="fill:#ffffff;fill-opacity:1;fill-rule:nonzero;stroke:none"
             id="path68" />
        </g>
        <g
           id="g70"
           transform="translate(258.3483,244.8708)"
           style="fill:#ffffff;fill-opacity:1">
          <path
             d="m 0,0 c 4.505,0 8.17,-3.665 8.17,-8.17 0,-4.506 -3.665,-8.171 -8.17,-8.171 -4.505,0 -8.17,3.665 -8.17,8.171 C -8.17,-3.665 -4.505,0 0,0 m -32.959,-47.776 v 13.463 h 14.497 v -13.236 c 2.921,0.027 5.853,0.044 8.797,0.048 v 17.87 h 19.33 v -18.017 c 2.944,-0.049 5.879,-0.106 8.797,-0.177 v 13.512 H 32.96 v -8.215 c 2.646,1.998 5.153,4.171 7.499,6.507 v 15.019 L 0,10.254 -40.458,-21.002 V -47.97 c 2.489,0.074 4.989,0.138 7.499,0.194"
             style="fill:#ffffff;fill-opacity:1;fill-rule:nonzero;stroke:none"
             id="path72" />
        </g>
        <path
           d="m 183.685,242.702 h 3.035 v -5.095 h -3.035 z m 0,22.379 h 3.035 v -5.094 h -3.035 z m 0,11.19 h 3.035 v -5.095 h -3.035 z m 5.311,-44.759 h 3.035 v -5.095 h -3.035 z m 0,22.379 h 3.035 v -5.095 h -3.035 z m 0,22.38 h 3.035 v -5.095 h -3.035 z m 5.311,-44.759 h 3.035 v -5.095 h -3.035 z m 0,11.19 h 3.035 v -5.095 h -3.035 z m 0,22.379 h 3.035 v -5.094 h -3.035 z m 5.311,-11.19 h 3.035 v -5.095 h -3.035 z m 0,11.19 h 3.035 v -5.094 h -3.035 z m 0,11.19 h 3.035 v -5.095 h -3.035 z m 8.539,-22.016 h 4.199 v -5.094 h -4.199 z m 0,11.645 h 4.199 v -5.094 h -4.199 z m 0,23.289 h 4.199 v -5.095 h -4.199 z m 0,11.644 h 4.199 v -5.094 h -4.199 z m 0,11.644 h 4.199 v -5.094 h -4.199 z m 7.349,-69.866 h 4.199 v -5.095 h -4.199 z m 0,11.644 h 4.199 v -5.094 h -4.199 z m 0,23.289 h 4.199 v -5.095 h -4.199 z m 0,11.645 h 4.199 v -5.095 h -4.199 z m 7.348,-23.289 h 4.2 v -5.094 h -4.2 z m 0,23.289 h 4.2 v -5.095 h -4.2 z m 0,11.644 h 4.2 v -5.094 h -4.2 z m 0,11.644 h 4.2 v -5.094 h -4.2 z m 7.349,-58.222 h 4.199 v -5.094 h -4.199 z m 0,11.645 h 4.199 v -5.094 h -4.199 z m 0,11.644 h 4.199 v -5.095 h -4.199 z m 0,34.933 h 4.199 v -5.094 h -4.199 z m -22.046,-104.8 h 4.199 v -5.095 h -4.199 z m 0,11.645 h 4.199 v -5.095 h -4.199 z m -24.472,12.19 h 3.035 v -5.094 h -2.643 c 6.595,-12.509 16.76,-22.841 29.127,-29.664 0.656,0.022 1.309,0.047 1.967,0.068 v 23.672 l -1.505,-1.163 H 201.52 c -1.301,0 -1.863,1.647 -0.834,2.442 l 22.168,17.127 v 3.711 h 4.2 v -0.467 l 18.738,14.476 h -8.478 v 60.406 h -32.75 V 282.82 h -24.745 v -46.622 c 1.087,-3.108 2.382,-6.117 3.866,-9.016 z"
           style="fill:#ffffff;fill-opacity:1;fill-rule:nonzero;stroke:none"
           id="path74" />
        <g
           id="g76"
           transform="translate(441.5914,172.3054)"
           style="fill:#ffffff;fill-opacity:1">
          <path
             d="M 0,0 C -48.873,12.184 -116.659,19.733 -191.591,19.733 -266.524,19.733 -334.31,12.184 -383.183,0 -334.31,4.841 -266.524,7.841 -191.591,7.841 -116.659,7.841 -48.873,4.841 0,0"
             style="fill:#ffffff;fill-opacity:1;fill-rule:nonzero;stroke:none"
             id="path78" />
        </g>
      </g>
    </g>
    <text
       xml:space="preserve"
       transform="matrix(1,0,0,-1,79.584,135.6152)"
       style="font-variant:normal;font-weight:bold;font-stretch:normal;font-size:42.7381px;font-family:Rubik;-inkscape-font-specification:Rubik-Bold;writing-mode:lr-tb;fill:#ffffff;fill-opacity:1;fill-rule:nonzero;stroke:none"
       id="text82"><tspan
         x="0 30.002146 60.688103 91.715965 120.22227 147.19002 176.89299 208.26276 238.26491 265.23264 279.12253 309.80847"
         y="0"
         sodipodi:role="line"
         id="tspan80">CONSTRUCTION</tspan></text>
    <text
       xml:space="preserve"
       transform="matrix(1,0,0,-1,153.2666,116.3027)"
       style="font-variant:normal;font-weight:bold;font-stretch:normal;font-size:13.8005px;font-family:'League Spartan';-inkscape-font-specification:LeagueSpartan-Bold;writing-mode:lr-tb;fill:#ffffff;fill-opacity:1;fill-rule:nonzero;stroke:none"
       id="text86"><tspan
         x="0 12.917268 27.780407 40.808079 53.449337 59.314548 69.637321 83.217018 97.417732 107.97511 114.98576 129.14508 139.90947 146.4371 159.71318 170.47757 183.11884"
         y="0"
         sodipodi:role="line"
         id="tspan84">YOUR TAGLINE HERE</tspan></text>
  </g>
</svg>
